<svg width="24" height="25" viewBox="0 0 24 25" fill="none" xmlns="http://www.w3.org/2000/svg">
<path d="M5.25 22.25H18.75" stroke="#00B307" stroke-width="1.5" stroke-linecap="round" stroke-linejoin="round"/>
<path d="M12 13.25C12.7956 13.25 13.5587 12.9339 14.1213 12.3713C14.6839 11.8087 15 11.0456 15 10.25C15 9.45435 14.6839 8.69129 14.1213 8.12868C13.5587 7.56607 12.7956 7.25 12 7.25C11.2044 7.25 10.4413 7.56607 9.87868 8.12868C9.31607 8.69129 9 9.45435 9 10.25C9 11.0456 9.31607 11.8087 9.87868 12.3713C10.4413 12.9339 11.2044 13.25 12 13.25V13.25Z" stroke="#00B307" stroke-width="1.5" stroke-linecap="round" stroke-linejoin="round"/>
<path d="M19.5 10.25C19.5 17 12 22.25 12 22.25C12 22.25 4.5 17 4.5 10.25C4.5 8.26088 5.29018 6.35322 6.6967 4.9467C8.10322 3.54018 10.0109 2.75 12 2.75C13.9891 2.75 15.8968 3.54018 17.3033 4.9467C18.7098 6.35322 19.5 8.26088 19.5 10.25V10.25Z" stroke="#00B307" stroke-width="1.5" stroke-linecap="round" stroke-linejoin="round"/>
</svg>
