<svg width="24" height="25" viewBox="0 0 24 25" fill="none" xmlns="http://www.w3.org/2000/svg">
<path d="M14.8154 3.9082C16.1999 4.28056 17.4622 5.01016 18.476 6.02392C19.4898 7.03768 20.2194 8.30002 20.5917 9.68449" stroke="#00B307" stroke-width="1.5" stroke-linecap="round" stroke-linejoin="round"/>
<path d="M13.9697 7.06494C14.8002 7.28837 15.5575 7.72607 16.1656 8.3342C16.7737 8.94233 17.2114 9.69956 17.4348 10.5301" stroke="#00B307" stroke-width="1.5" stroke-linecap="round" stroke-linejoin="round"/>
<path d="M7.98234 12.5666C8.82922 14.2986 10.2329 15.6962 11.9685 16.5356C12.0956 16.5958 12.2362 16.6218 12.3764 16.6111C12.5166 16.6004 12.6516 16.5532 12.768 16.4744L15.3242 14.7708C15.4371 14.6954 15.567 14.6494 15.7022 14.6368C15.8373 14.6243 15.9735 14.6456 16.0984 14.6989L20.88 16.7488C21.0424 16.8178 21.178 16.9377 21.2664 17.0904C21.3547 17.2432 21.3911 17.4205 21.37 17.5957C21.2186 18.7782 20.6415 19.865 19.7466 20.6527C18.8518 21.4404 17.7005 21.8749 16.5083 21.875C12.8262 21.875 9.29497 20.4123 6.69134 17.8087C4.08771 15.205 2.625 11.6738 2.625 7.99166C2.62511 6.7996 3.0597 5.64844 3.84739 4.75371C4.63509 3.85898 5.7219 3.28203 6.90433 3.13086C7.07953 3.10973 7.25685 3.14609 7.40959 3.23446C7.56233 3.32284 7.68222 3.45844 7.75122 3.62086L9.80269 8.40653C9.85545 8.53018 9.87686 8.66494 9.86504 8.79886C9.85322 8.93277 9.80851 9.0617 9.7349 9.17419L8.03624 11.7696C7.95914 11.8864 7.91365 12.0213 7.9042 12.161C7.89476 12.3007 7.92168 12.4404 7.98234 12.5666V12.5666Z" stroke="#00B307" stroke-width="1.5" stroke-linecap="round" stroke-linejoin="round"/>
</svg>
